<?xml version="1.0" encoding="UTF-8" standalone="no"?>
<!DOCTYPE svg PUBLIC "-//W3C//DTD SVG 1.1//EN"
"http://www.w3.org/Graphics/SVG/1.1/DTD/svg11.dtd">
<svg viewBox="0 0 935 1210" version="1.1" xmlns="http://www.w3.org/2000/svg" xmlns:xlink="http://www.w3.org/1999/xlink">
<defs>
<style type="text/css"><![CDATA[
.g0_8{
}
.g1_8{
fill: #FFFFFF;
}
]]></style>
</defs>
<path fill-rule="evenodd" d="M110.1,142.5h.5V142h-.5v.5Z" class="g0_8"/>
<path fill-rule="evenodd" d="M110.1,142.5h.5V142h-.5v.5Z" class="g0_8"/>
<path fill-rule="evenodd" d="M110.6,142.5H347.8V142H110.6v.5Z" class="g0_8"/>
<path fill-rule="evenodd" d="M347.8,142.5h.6V142h-.6v.5Z" class="g0_8"/>
<path fill-rule="evenodd" d="M348.4,142.5H586.1V142H348.4v.5Z" class="g0_8"/>
<path fill-rule="evenodd" d="M586.1,142.5h.6V142h-.6v.5Z" class="g0_8"/>
<path fill-rule="evenodd" d="M586.7,142.5H824.4V142H586.7v.5Z" class="g0_8"/>
<path fill-rule="evenodd" d="M824.4,142.5h.6V142h-.6v.5Z" class="g0_8"/>
<path fill-rule="evenodd" d="M824.4,142.5h.6V142h-.6v.5Z" class="g0_8"/>
<path fill-rule="evenodd" d="M110.1,162.3h.5V142.5h-.5v19.8Z" class="g0_8"/>
<path fill-rule="evenodd" d="M347.8,162.3h.6V142.5h-.6v19.8Z" class="g0_8"/>
<path fill-rule="evenodd" d="M586.1,162.3h.6V142.5h-.6v19.8Z" class="g0_8"/>
<path fill-rule="evenodd" d="M824.4,162.3h.6V142.5h-.6v19.8Z" class="g0_8"/>
<path fill-rule="evenodd" d="M356.6,183.8H534.4V162.9H356.6v20.9Z" class="g1_8"/>
<path fill-rule="evenodd" d="M356.6,208.6h148V187.1h-148v21.5Z" class="g1_8"/>
<path fill-rule="evenodd" d="M356.6,232.8h208V211.9h-208v20.9Z" class="g1_8"/>
<path fill-rule="evenodd" d="M356.6,257H522.3V236.1H356.6V257Z" class="g1_8"/>
<path fill-rule="evenodd" d="M110.1,162.9h.5v-.6h-.5v.6Z" class="g0_8"/>
<path fill-rule="evenodd" d="M110.6,162.9H347.8v-.6H110.6v.6Z" class="g0_8"/>
<path fill-rule="evenodd" d="M347.8,162.9h.6v-.6h-.6v.6Z" class="g0_8"/>
<path fill-rule="evenodd" d="M348.4,162.9H586.1v-.6H348.4v.6Z" class="g0_8"/>
<path fill-rule="evenodd" d="M586.1,162.9h.6v-.6h-.6v.6Z" class="g0_8"/>
<path fill-rule="evenodd" d="M586.7,162.9H824.4v-.6H586.7v.6Z" class="g0_8"/>
<path fill-rule="evenodd" d="M824.4,162.9h.6v-.6h-.6v.6Z" class="g0_8"/>
<path fill-rule="evenodd" d="M110.1,260.3h.5V162.9h-.5v97.4Z" class="g0_8"/>
<path fill-rule="evenodd" d="M347.8,260.3h.6V162.9h-.6v97.4Z" class="g0_8"/>
<path fill-rule="evenodd" d="M586.1,260.3h.6V162.9h-.6v97.4Z" class="g0_8"/>
<path fill-rule="evenodd" d="M824.4,260.3h.6V162.9h-.6v97.4Z" class="g0_8"/>
<path fill-rule="evenodd" d="M356.6,281.8H564.1v-21H356.6v21Z" class="g1_8"/>
<path fill-rule="evenodd" d="M356.6,306H532.7V285.1H356.6V306Z" class="g1_8"/>
<path fill-rule="evenodd" d="M594.9,281.8H778.2v-21H594.9v21Z" class="g1_8"/>
<path fill-rule="evenodd" d="M594.9,306h52.3V285.1H594.9V306Z" class="g1_8"/>
<path fill-rule="evenodd" d="M110.1,260.8h.5v-.5h-.5v.5Z" class="g0_8"/>
<path fill-rule="evenodd" d="M110.6,260.8H347.8v-.5H110.6v.5Z" class="g0_8"/>
<path fill-rule="evenodd" d="M347.8,260.8h.6v-.5h-.6v.5Z" class="g0_8"/>
<path fill-rule="evenodd" d="M348.4,260.8H586.1v-.5H348.4v.5Z" class="g0_8"/>
<path fill-rule="evenodd" d="M586.1,260.8h.6v-.5h-.6v.5Z" class="g0_8"/>
<path fill-rule="evenodd" d="M586.7,260.8H824.4v-.5H586.7v.5Z" class="g0_8"/>
<path fill-rule="evenodd" d="M824.4,260.8h.6v-.5h-.6v.5Z" class="g0_8"/>
<path fill-rule="evenodd" d="M110.1,309.3h.5V260.8h-.5v48.5Z" class="g0_8"/>
<path fill-rule="evenodd" d="M347.8,309.3h.6V260.8h-.6v48.5Z" class="g0_8"/>
<path fill-rule="evenodd" d="M586.1,309.3h.6V260.8h-.6v48.5Z" class="g0_8"/>
<path fill-rule="evenodd" d="M824.4,309.3h.6V260.8h-.6v48.5Z" class="g0_8"/>
<path fill-rule="evenodd" d="M356.6,331.3h142V310.4h-142v20.9Z" class="g1_8"/>
<path fill-rule="evenodd" d="M356.6,355.5H563v-21H356.6v21Z" class="g1_8"/>
<path fill-rule="evenodd" d="M356.6,379.7H548.7V358.8H356.6v20.9Z" class="g1_8"/>
<path fill-rule="evenodd" d="M356.6,403.9H519.5V383H356.6v20.9Z" class="g1_8"/>
<path fill-rule="evenodd" d="M594.9,331.3h219V310.4h-219v20.9Z" class="g1_8"/>
<path fill-rule="evenodd" d="M594.9,355.5H781.5v-21H594.9v21Z" class="g1_8"/>
<path fill-rule="evenodd" d="M594.9,379.7h73.8V358.8H594.9v20.9Z" class="g1_8"/>
<path fill-rule="evenodd" d="M110.1,309.8h.5v-.5h-.5v.5Z" class="g0_8"/>
<path fill-rule="evenodd" d="M110.6,309.8H347.8v-.5H110.6v.5Z" class="g0_8"/>
<path fill-rule="evenodd" d="M347.8,309.8h.6v-.5h-.6v.5Z" class="g0_8"/>
<path fill-rule="evenodd" d="M348.4,309.8H586.1v-.5H348.4v.5Z" class="g0_8"/>
<path fill-rule="evenodd" d="M586.1,309.8h.6v-.5h-.6v.5Z" class="g0_8"/>
<path fill-rule="evenodd" d="M586.7,309.8H824.4v-.5H586.7v.5Z" class="g0_8"/>
<path fill-rule="evenodd" d="M824.4,309.8h.6v-.5h-.6v.5Z" class="g0_8"/>
<path fill-rule="evenodd" d="M110.1,407.2h.5V309.8h-.5v97.4Z" class="g0_8"/>
<path fill-rule="evenodd" d="M347.8,407.2h.6V309.8h-.6v97.4Z" class="g0_8"/>
<path fill-rule="evenodd" d="M586.1,407.2h.6V309.8h-.6v97.4Z" class="g0_8"/>
<path fill-rule="evenodd" d="M824.4,407.2h.6V309.8h-.6v97.4Z" class="g0_8"/>
<path fill-rule="evenodd" d="M594.9,428.6H778.2V407.7H594.9v20.9Z" class="g1_8"/>
<path fill-rule="evenodd" d="M594.9,453.4H739.6V432H594.9v21.4Z" class="g1_8"/>
<path fill-rule="evenodd" d="M110.1,407.7h.5v-.5h-.5v.5Z" class="g0_8"/>
<path fill-rule="evenodd" d="M110.6,407.7H347.8v-.5H110.6v.5Z" class="g0_8"/>
<path fill-rule="evenodd" d="M347.8,407.7h.6v-.5h-.6v.5Z" class="g0_8"/>
<path fill-rule="evenodd" d="M348.4,407.7H586.1v-.5H348.4v.5Z" class="g0_8"/>
<path fill-rule="evenodd" d="M586.1,407.7h.6v-.5h-.6v.5Z" class="g0_8"/>
<path fill-rule="evenodd" d="M586.7,407.7H824.4v-.5H586.7v.5Z" class="g0_8"/>
<path fill-rule="evenodd" d="M824.4,407.7h.6v-.5h-.6v.5Z" class="g0_8"/>
<path fill-rule="evenodd" d="M110.1,480.9h.5V407.7h-.5v73.2Z" class="g0_8"/>
<path fill-rule="evenodd" d="M347.8,480.9h.6V407.7h-.6v73.2Z" class="g0_8"/>
<path fill-rule="evenodd" d="M586.1,480.9h.6V407.7h-.6v73.2Z" class="g0_8"/>
<path fill-rule="evenodd" d="M824.4,480.9h.6V407.7h-.6v73.2Z" class="g0_8"/>
<path fill-rule="evenodd" d="M110.1,481.5h.5v-.6h-.5v.6Z" class="g0_8"/>
<path fill-rule="evenodd" d="M110.6,481.5H347.8v-.6H110.6v.6Z" class="g0_8"/>
<path fill-rule="evenodd" d="M347.8,481.5h.6v-.6h-.6v.6Z" class="g0_8"/>
<path fill-rule="evenodd" d="M348.4,481.5H586.1v-.6H348.4v.6Z" class="g0_8"/>
<path fill-rule="evenodd" d="M586.1,481.5h.6v-.6h-.6v.6Z" class="g0_8"/>
<path fill-rule="evenodd" d="M586.7,481.5H824.4v-.6H586.7v.6Z" class="g0_8"/>
<path fill-rule="evenodd" d="M824.4,481.5h.6v-.6h-.6v.6Z" class="g0_8"/>
<path fill-rule="evenodd" d="M110.1,529.9h.5V481.5h-.5v48.4Z" class="g0_8"/>
<path fill-rule="evenodd" d="M347.8,529.9h.6V481.5h-.6v48.4Z" class="g0_8"/>
<path fill-rule="evenodd" d="M586.1,529.9h.6V481.5h-.6v48.4Z" class="g0_8"/>
<path fill-rule="evenodd" d="M824.4,529.9h.6V481.5h-.6v48.4Z" class="g0_8"/>
<path fill-rule="evenodd" d="M110.1,530.5h.5v-.6h-.5v.6Z" class="g0_8"/>
<path fill-rule="evenodd" d="M110.6,530.5H347.8v-.6H110.6v.6Z" class="g0_8"/>
<path fill-rule="evenodd" d="M347.8,530.5h.6v-.6h-.6v.6Z" class="g0_8"/>
<path fill-rule="evenodd" d="M348.4,530.5H586.1v-.6H348.4v.6Z" class="g0_8"/>
<path fill-rule="evenodd" d="M586.1,530.5h.6v-.6h-.6v.6Z" class="g0_8"/>
<path fill-rule="evenodd" d="M586.7,530.5H824.4v-.6H586.7v.6Z" class="g0_8"/>
<path fill-rule="evenodd" d="M824.4,530.5h.6v-.6h-.6v.6Z" class="g0_8"/>
<path fill-rule="evenodd" d="M110.1,579.4h.5V530.5h-.5v48.9Z" class="g0_8"/>
<path fill-rule="evenodd" d="M347.8,579.4h.6V530.5h-.6v48.9Z" class="g0_8"/>
<path fill-rule="evenodd" d="M586.1,579.4h.6V530.5h-.6v48.9Z" class="g0_8"/>
<path fill-rule="evenodd" d="M824.4,579.4h.6V530.5h-.6v48.9Z" class="g0_8"/>
<path fill-rule="evenodd" d="M110.1,580h.5v-.6h-.5v.6Z" class="g0_8"/>
<path fill-rule="evenodd" d="M110.6,580H347.8v-.6H110.6v.6Z" class="g0_8"/>
<path fill-rule="evenodd" d="M347.8,580h.6v-.6h-.6v.6Z" class="g0_8"/>
<path fill-rule="evenodd" d="M348.4,580H586.1v-.6H348.4v.6Z" class="g0_8"/>
<path fill-rule="evenodd" d="M586.1,580h.6v-.6h-.6v.6Z" class="g0_8"/>
<path fill-rule="evenodd" d="M586.7,580H824.4v-.6H586.7v.6Z" class="g0_8"/>
<path fill-rule="evenodd" d="M824.4,580h.6v-.6h-.6v.6Z" class="g0_8"/>
<path fill-rule="evenodd" d="M110.1,628.4h.5V580h-.5v48.4Z" class="g0_8"/>
<path fill-rule="evenodd" d="M347.8,628.4h.6V580h-.6v48.4Z" class="g0_8"/>
<path fill-rule="evenodd" d="M586.1,628.4h.6V580h-.6v48.4Z" class="g0_8"/>
<path fill-rule="evenodd" d="M824.4,628.4h.6V580h-.6v48.4Z" class="g0_8"/>
<path fill-rule="evenodd" d="M110.1,628.9h.5v-.5h-.5v.5Z" class="g0_8"/>
<path fill-rule="evenodd" d="M110.6,628.9H347.8v-.5H110.6v.5Z" class="g0_8"/>
<path fill-rule="evenodd" d="M347.8,628.9h.6v-.5h-.6v.5Z" class="g0_8"/>
<path fill-rule="evenodd" d="M348.4,628.9H586.1v-.5H348.4v.5Z" class="g0_8"/>
<path fill-rule="evenodd" d="M586.1,628.9h.6v-.5h-.6v.5Z" class="g0_8"/>
<path fill-rule="evenodd" d="M586.7,628.9H824.4v-.5H586.7v.5Z" class="g0_8"/>
<path fill-rule="evenodd" d="M824.4,628.9h.6v-.5h-.6v.5Z" class="g0_8"/>
<path fill-rule="evenodd" d="M110.1,677.9h.5v-49h-.5v49Z" class="g0_8"/>
<path fill-rule="evenodd" d="M110.1,678.5h.5v-.6h-.5v.6Z" class="g0_8"/>
<path fill-rule="evenodd" d="M110.1,678.5h.5v-.6h-.5v.6Z" class="g0_8"/>
<path fill-rule="evenodd" d="M110.6,678.5H347.8v-.6H110.6v.6Z" class="g0_8"/>
<path fill-rule="evenodd" d="M347.8,677.9h.6v-49h-.6v49Z" class="g0_8"/>
<path fill-rule="evenodd" d="M347.8,678.5h.6v-.6h-.6v.6Z" class="g0_8"/>
<path fill-rule="evenodd" d="M348.4,678.5H586.1v-.6H348.4v.6Z" class="g0_8"/>
<path fill-rule="evenodd" d="M586.1,677.9h.6v-49h-.6v49Z" class="g0_8"/>
<path fill-rule="evenodd" d="M586.1,678.5h.6v-.6h-.6v.6Z" class="g0_8"/>
<path fill-rule="evenodd" d="M586.7,678.5H824.4v-.6H586.7v.6Z" class="g0_8"/>
<path fill-rule="evenodd" d="M824.4,677.9h.6v-49h-.6v49Z" class="g0_8"/>
<path fill-rule="evenodd" d="M824.4,678.5h.6v-.6h-.6v.6Z" class="g0_8"/>
<path fill-rule="evenodd" d="M824.4,678.5h.6v-.6h-.6v.6Z" class="g0_8"/>
<path fill-rule="evenodd" d="M55,142h1.1V110H55v32Z" class="g0_8"/>
</svg>