<?xml version="1.0" encoding="UTF-8" standalone="no"?>
<!DOCTYPE svg PUBLIC "-//W3C//DTD SVG 1.1//EN"
"http://www.w3.org/Graphics/SVG/1.1/DTD/svg11.dtd">
<svg viewBox="0 0 935 1210" version="1.1" xmlns="http://www.w3.org/2000/svg" xmlns:xlink="http://www.w3.org/1999/xlink">
<defs>
<style type="text/css"><![CDATA[
.g0_9{
}
]]></style>
</defs>
<path fill-rule="evenodd" d="M110.1,173.9h.5v-.6h-.5v.6Z" class="g0_9"/>
<path fill-rule="evenodd" d="M110.1,173.9h.5v-.6h-.5v.6Z" class="g0_9"/>
<path fill-rule="evenodd" d="M110.6,173.9H320.8v-.6H110.6v.6Z" class="g0_9"/>
<path fill-rule="evenodd" d="M320.8,173.9h.6v-.6h-.6v.6Z" class="g0_9"/>
<path fill-rule="evenodd" d="M321.4,173.9H874.5v-.6H321.4v.6Z" class="g0_9"/>
<path fill-rule="evenodd" d="M874.5,173.9h.5v-.6h-.5v.6Z" class="g0_9"/>
<path fill-rule="evenodd" d="M874.5,173.9h.5v-.6h-.5v.6Z" class="g0_9"/>
<path fill-rule="evenodd" d="M110.1,194.8h.5V173.9h-.5v20.9Z" class="g0_9"/>
<path fill-rule="evenodd" d="M320.8,194.8h.6V173.9h-.6v20.9Z" class="g0_9"/>
<path fill-rule="evenodd" d="M874.5,194.8h.5V173.9h-.5v20.9Z" class="g0_9"/>
<path fill-rule="evenodd" d="M110.1,195.4h.5v-.6h-.5v.6Z" class="g0_9"/>
<path fill-rule="evenodd" d="M110.6,195.4H320.8v-.6H110.6v.6Z" class="g0_9"/>
<path fill-rule="evenodd" d="M320.8,195.4h.6v-.6h-.6v.6Z" class="g0_9"/>
<path fill-rule="evenodd" d="M321.4,195.4H874.5v-.6H321.4v.6Z" class="g0_9"/>
<path fill-rule="evenodd" d="M874.5,195.4h.5v-.6h-.5v.6Z" class="g0_9"/>
<path fill-rule="evenodd" d="M110.1,215.7h.5V195.4h-.5v20.3Z" class="g0_9"/>
<path fill-rule="evenodd" d="M320.8,215.7h.6V195.4h-.6v20.3Z" class="g0_9"/>
<path fill-rule="evenodd" d="M874.5,215.7h.5V195.4h-.5v20.3Z" class="g0_9"/>
<path fill-rule="evenodd" d="M110.1,216.3h.5v-.6h-.5v.6Z" class="g0_9"/>
<path fill-rule="evenodd" d="M110.6,216.3H320.8v-.6H110.6v.6Z" class="g0_9"/>
<path fill-rule="evenodd" d="M320.8,216.3h.6v-.6h-.6v.6Z" class="g0_9"/>
<path fill-rule="evenodd" d="M321.4,216.3H874.5v-.6H321.4v.6Z" class="g0_9"/>
<path fill-rule="evenodd" d="M874.5,216.3h.5v-.6h-.5v.6Z" class="g0_9"/>
<path fill-rule="evenodd" d="M110.1,237.2h.5V216.3h-.5v20.9Z" class="g0_9"/>
<path fill-rule="evenodd" d="M320.8,237.2h.6V216.3h-.6v20.9Z" class="g0_9"/>
<path fill-rule="evenodd" d="M874.5,237.2h.5V216.3h-.5v20.9Z" class="g0_9"/>
<path fill-rule="evenodd" d="M110.1,237.7h.5v-.5h-.5v.5Z" class="g0_9"/>
<path fill-rule="evenodd" d="M110.6,237.7H320.8v-.5H110.6v.5Z" class="g0_9"/>
<path fill-rule="evenodd" d="M320.8,237.7h.6v-.5h-.6v.5Z" class="g0_9"/>
<path fill-rule="evenodd" d="M321.4,237.7H874.5v-.5H321.4v.5Z" class="g0_9"/>
<path fill-rule="evenodd" d="M874.5,237.7h.5v-.5h-.5v.5Z" class="g0_9"/>
<path fill-rule="evenodd" d="M110.1,258.6h.5V237.7h-.5v20.9Z" class="g0_9"/>
<path fill-rule="evenodd" d="M320.8,258.6h.6V237.7h-.6v20.9Z" class="g0_9"/>
<path fill-rule="evenodd" d="M874.5,258.6h.5V237.7h-.5v20.9Z" class="g0_9"/>
<path fill-rule="evenodd" d="M110.1,259.2h.5v-.6h-.5v.6Z" class="g0_9"/>
<path fill-rule="evenodd" d="M110.6,259.2H320.8v-.6H110.6v.6Z" class="g0_9"/>
<path fill-rule="evenodd" d="M320.8,259.2h.6v-.6h-.6v.6Z" class="g0_9"/>
<path fill-rule="evenodd" d="M321.4,259.2H874.5v-.6H321.4v.6Z" class="g0_9"/>
<path fill-rule="evenodd" d="M874.5,259.2h.5v-.6h-.5v.6Z" class="g0_9"/>
<path fill-rule="evenodd" d="M110.1,279.6h.5V259.2h-.5v20.4Z" class="g0_9"/>
<path fill-rule="evenodd" d="M320.8,279.6h.6V259.2h-.6v20.4Z" class="g0_9"/>
<path fill-rule="evenodd" d="M874.5,279.6h.5V259.2h-.5v20.4Z" class="g0_9"/>
<path fill-rule="evenodd" d="M110.1,280.1h.5v-.5h-.5v.5Z" class="g0_9"/>
<path fill-rule="evenodd" d="M110.6,280.1H320.8v-.5H110.6v.5Z" class="g0_9"/>
<path fill-rule="evenodd" d="M320.8,280.1h.6v-.5h-.6v.5Z" class="g0_9"/>
<path fill-rule="evenodd" d="M321.4,280.1H874.5v-.5H321.4v.5Z" class="g0_9"/>
<path fill-rule="evenodd" d="M874.5,280.1h.5v-.5h-.5v.5Z" class="g0_9"/>
<path fill-rule="evenodd" d="M110.1,301h.5V280.1h-.5V301Z" class="g0_9"/>
<path fill-rule="evenodd" d="M320.8,301h.6V280.1h-.6V301Z" class="g0_9"/>
<path fill-rule="evenodd" d="M874.5,301h.5V280.1h-.5V301Z" class="g0_9"/>
<path fill-rule="evenodd" d="M110.1,301.6h.5V301h-.5v.6Z" class="g0_9"/>
<path fill-rule="evenodd" d="M110.6,301.6H320.8V301H110.6v.6Z" class="g0_9"/>
<path fill-rule="evenodd" d="M320.8,301.6h.6V301h-.6v.6Z" class="g0_9"/>
<path fill-rule="evenodd" d="M321.4,301.6H874.5V301H321.4v.6Z" class="g0_9"/>
<path fill-rule="evenodd" d="M874.5,301.6h.5V301h-.5v.6Z" class="g0_9"/>
<path fill-rule="evenodd" d="M110.1,322.5h.5V301.6h-.5v20.9Z" class="g0_9"/>
<path fill-rule="evenodd" d="M320.8,322.5h.6V301.6h-.6v20.9Z" class="g0_9"/>
<path fill-rule="evenodd" d="M874.5,322.5h.5V301.6h-.5v20.9Z" class="g0_9"/>
<path fill-rule="evenodd" d="M110.1,323h.5v-.5h-.5v.5Z" class="g0_9"/>
<path fill-rule="evenodd" d="M110.6,323H320.8v-.5H110.6v.5Z" class="g0_9"/>
<path fill-rule="evenodd" d="M320.8,323h.6v-.5h-.6v.5Z" class="g0_9"/>
<path fill-rule="evenodd" d="M321.4,323H874.5v-.5H321.4v.5Z" class="g0_9"/>
<path fill-rule="evenodd" d="M874.5,323h.5v-.5h-.5v.5Z" class="g0_9"/>
<path fill-rule="evenodd" d="M110.1,343.4h.5V323h-.5v20.4Z" class="g0_9"/>
<path fill-rule="evenodd" d="M320.8,343.4h.6V323h-.6v20.4Z" class="g0_9"/>
<path fill-rule="evenodd" d="M874.5,343.4h.5V323h-.5v20.4Z" class="g0_9"/>
<path fill-rule="evenodd" d="M110.1,343.9h.5v-.5h-.5v.5Z" class="g0_9"/>
<path fill-rule="evenodd" d="M110.6,343.9H320.8v-.5H110.6v.5Z" class="g0_9"/>
<path fill-rule="evenodd" d="M320.8,343.9h.6v-.5h-.6v.5Z" class="g0_9"/>
<path fill-rule="evenodd" d="M321.4,343.9H874.5v-.5H321.4v.5Z" class="g0_9"/>
<path fill-rule="evenodd" d="M874.5,343.9h.5v-.5h-.5v.5Z" class="g0_9"/>
<path fill-rule="evenodd" d="M110.1,364.8h.5V343.9h-.5v20.9Z" class="g0_9"/>
<path fill-rule="evenodd" d="M320.8,364.8h.6V343.9h-.6v20.9Z" class="g0_9"/>
<path fill-rule="evenodd" d="M874.5,364.8h.5V343.9h-.5v20.9Z" class="g0_9"/>
<path fill-rule="evenodd" d="M110.1,365.4h.5v-.6h-.5v.6Z" class="g0_9"/>
<path fill-rule="evenodd" d="M110.6,365.4H320.8v-.6H110.6v.6Z" class="g0_9"/>
<path fill-rule="evenodd" d="M320.8,365.4h.6v-.6h-.6v.6Z" class="g0_9"/>
<path fill-rule="evenodd" d="M321.4,365.4H874.5v-.6H321.4v.6Z" class="g0_9"/>
<path fill-rule="evenodd" d="M874.5,365.4h.5v-.6h-.5v.6Z" class="g0_9"/>
<path fill-rule="evenodd" d="M110.1,406.6h.5V365.4h-.5v41.2Z" class="g0_9"/>
<path fill-rule="evenodd" d="M320.8,406.6h.6V365.4h-.6v41.2Z" class="g0_9"/>
<path fill-rule="evenodd" d="M874.5,406.6h.5V365.4h-.5v41.2Z" class="g0_9"/>
<path fill-rule="evenodd" d="M110.1,407.2h.5v-.6h-.5v.6Z" class="g0_9"/>
<path fill-rule="evenodd" d="M110.6,407.2H320.8v-.6H110.6v.6Z" class="g0_9"/>
<path fill-rule="evenodd" d="M320.8,407.2h.6v-.6h-.6v.6Z" class="g0_9"/>
<path fill-rule="evenodd" d="M321.4,407.2H874.5v-.6H321.4v.6Z" class="g0_9"/>
<path fill-rule="evenodd" d="M874.5,407.2h.5v-.6h-.5v.6Z" class="g0_9"/>
<path fill-rule="evenodd" d="M110.1,428.1h.5V407.2h-.5v20.9Z" class="g0_9"/>
<path fill-rule="evenodd" d="M320.8,428.1h.6V407.2h-.6v20.9Z" class="g0_9"/>
<path fill-rule="evenodd" d="M874.5,428.1h.5V407.2h-.5v20.9Z" class="g0_9"/>
<path fill-rule="evenodd" d="M110.1,428.6h.5v-.5h-.5v.5Z" class="g0_9"/>
<path fill-rule="evenodd" d="M110.6,428.6H320.8v-.5H110.6v.5Z" class="g0_9"/>
<path fill-rule="evenodd" d="M320.8,428.6h.6v-.5h-.6v.5Z" class="g0_9"/>
<path fill-rule="evenodd" d="M321.4,428.6H874.5v-.5H321.4v.5Z" class="g0_9"/>
<path fill-rule="evenodd" d="M874.5,428.6h.5v-.5h-.5v.5Z" class="g0_9"/>
<path fill-rule="evenodd" d="M110.1,449.6h.5v-21h-.5v21Z" class="g0_9"/>
<path fill-rule="evenodd" d="M320.8,449.6h.6v-21h-.6v21Z" class="g0_9"/>
<path fill-rule="evenodd" d="M874.5,449.6h.5v-21h-.5v21Z" class="g0_9"/>
<path fill-rule="evenodd" d="M110.1,450.1h.5v-.5h-.5v.5Z" class="g0_9"/>
<path fill-rule="evenodd" d="M110.6,450.1H320.8v-.5H110.6v.5Z" class="g0_9"/>
<path fill-rule="evenodd" d="M320.8,450.1h.6v-.5h-.6v.5Z" class="g0_9"/>
<path fill-rule="evenodd" d="M321.4,450.1H874.5v-.5H321.4v.5Z" class="g0_9"/>
<path fill-rule="evenodd" d="M874.5,450.1h.5v-.5h-.5v.5Z" class="g0_9"/>
<path fill-rule="evenodd" d="M110.1,470.5h.5V450.1h-.5v20.4Z" class="g0_9"/>
<path fill-rule="evenodd" d="M320.8,470.5h.6V450.1h-.6v20.4Z" class="g0_9"/>
<path fill-rule="evenodd" d="M874.5,470.5h.5V450.1h-.5v20.4Z" class="g0_9"/>
<path fill-rule="evenodd" d="M110.1,471h.5v-.5h-.5v.5Z" class="g0_9"/>
<path fill-rule="evenodd" d="M110.6,471H320.8v-.5H110.6v.5Z" class="g0_9"/>
<path fill-rule="evenodd" d="M320.8,471h.6v-.5h-.6v.5Z" class="g0_9"/>
<path fill-rule="evenodd" d="M321.4,471H874.5v-.5H321.4v.5Z" class="g0_9"/>
<path fill-rule="evenodd" d="M874.5,471h.5v-.5h-.5v.5Z" class="g0_9"/>
<path fill-rule="evenodd" d="M110.1,491.9h.5V471h-.5v20.9Z" class="g0_9"/>
<path fill-rule="evenodd" d="M320.8,491.9h.6V471h-.6v20.9Z" class="g0_9"/>
<path fill-rule="evenodd" d="M874.5,491.9h.5V471h-.5v20.9Z" class="g0_9"/>
<path fill-rule="evenodd" d="M110.1,492.5h.5v-.6h-.5v.6Z" class="g0_9"/>
<path fill-rule="evenodd" d="M110.6,492.5H320.8v-.6H110.6v.6Z" class="g0_9"/>
<path fill-rule="evenodd" d="M320.8,492.5h.6v-.6h-.6v.6Z" class="g0_9"/>
<path fill-rule="evenodd" d="M321.4,492.5H874.5v-.6H321.4v.6Z" class="g0_9"/>
<path fill-rule="evenodd" d="M874.5,492.5h.5v-.6h-.5v.6Z" class="g0_9"/>
<path fill-rule="evenodd" d="M110.1,513.4h.5V492.5h-.5v20.9Z" class="g0_9"/>
<path fill-rule="evenodd" d="M320.8,513.4h.6V492.5h-.6v20.9Z" class="g0_9"/>
<path fill-rule="evenodd" d="M874.5,513.4h.5V492.5h-.5v20.9Z" class="g0_9"/>
<path fill-rule="evenodd" d="M110.1,514h.5v-.6h-.5v.6Z" class="g0_9"/>
<path fill-rule="evenodd" d="M110.6,514H320.8v-.6H110.6v.6Z" class="g0_9"/>
<path fill-rule="evenodd" d="M320.8,514h.6v-.6h-.6v.6Z" class="g0_9"/>
<path fill-rule="evenodd" d="M321.4,514H874.5v-.6H321.4v.6Z" class="g0_9"/>
<path fill-rule="evenodd" d="M874.5,514h.5v-.6h-.5v.6Z" class="g0_9"/>
<path fill-rule="evenodd" d="M110.1,534.3h.5V514h-.5v20.3Z" class="g0_9"/>
<path fill-rule="evenodd" d="M320.8,534.3h.6V514h-.6v20.3Z" class="g0_9"/>
<path fill-rule="evenodd" d="M874.5,534.3h.5V514h-.5v20.3Z" class="g0_9"/>
<path fill-rule="evenodd" d="M110.1,534.9h.5v-.6h-.5v.6Z" class="g0_9"/>
<path fill-rule="evenodd" d="M110.6,534.9H320.8v-.6H110.6v.6Z" class="g0_9"/>
<path fill-rule="evenodd" d="M320.8,534.9h.6v-.6h-.6v.6Z" class="g0_9"/>
<path fill-rule="evenodd" d="M321.4,534.9H874.5v-.6H321.4v.6Z" class="g0_9"/>
<path fill-rule="evenodd" d="M874.5,534.9h.5v-.6h-.5v.6Z" class="g0_9"/>
<path fill-rule="evenodd" d="M110.1,555.8h.5V534.9h-.5v20.9Z" class="g0_9"/>
<path fill-rule="evenodd" d="M320.8,555.8h.6V534.9h-.6v20.9Z" class="g0_9"/>
<path fill-rule="evenodd" d="M874.5,555.8h.5V534.9h-.5v20.9Z" class="g0_9"/>
<path fill-rule="evenodd" d="M110.1,556.3h.5v-.5h-.5v.5Z" class="g0_9"/>
<path fill-rule="evenodd" d="M110.6,556.3H320.8v-.5H110.6v.5Z" class="g0_9"/>
<path fill-rule="evenodd" d="M320.8,556.3h.6v-.5h-.6v.5Z" class="g0_9"/>
<path fill-rule="evenodd" d="M321.4,556.3H874.5v-.5H321.4v.5Z" class="g0_9"/>
<path fill-rule="evenodd" d="M874.5,556.3h.5v-.5h-.5v.5Z" class="g0_9"/>
<path fill-rule="evenodd" d="M110.1,577.2h.5V556.3h-.5v20.9Z" class="g0_9"/>
<path fill-rule="evenodd" d="M320.8,577.2h.6V556.3h-.6v20.9Z" class="g0_9"/>
<path fill-rule="evenodd" d="M874.5,577.2h.5V556.3h-.5v20.9Z" class="g0_9"/>
<path fill-rule="evenodd" d="M110.1,577.8h.5v-.6h-.5v.6Z" class="g0_9"/>
<path fill-rule="evenodd" d="M110.6,577.8H320.8v-.6H110.6v.6Z" class="g0_9"/>
<path fill-rule="evenodd" d="M320.8,577.8h.6v-.6h-.6v.6Z" class="g0_9"/>
<path fill-rule="evenodd" d="M321.4,577.8H874.5v-.6H321.4v.6Z" class="g0_9"/>
<path fill-rule="evenodd" d="M874.5,577.8h.5v-.6h-.5v.6Z" class="g0_9"/>
<path fill-rule="evenodd" d="M110.1,598.1h.5V577.8h-.5v20.3Z" class="g0_9"/>
<path fill-rule="evenodd" d="M320.8,598.1h.6V577.8h-.6v20.3Z" class="g0_9"/>
<path fill-rule="evenodd" d="M874.5,598.1h.5V577.8h-.5v20.3Z" class="g0_9"/>
<path fill-rule="evenodd" d="M110.1,598.7h.5v-.6h-.5v.6Z" class="g0_9"/>
<path fill-rule="evenodd" d="M110.6,598.7H320.8v-.6H110.6v.6Z" class="g0_9"/>
<path fill-rule="evenodd" d="M320.8,598.7h.6v-.6h-.6v.6Z" class="g0_9"/>
<path fill-rule="evenodd" d="M321.4,598.7H874.5v-.6H321.4v.6Z" class="g0_9"/>
<path fill-rule="evenodd" d="M874.5,598.7h.5v-.6h-.5v.6Z" class="g0_9"/>
<path fill-rule="evenodd" d="M110.1,619.6h.5V598.7h-.5v20.9Z" class="g0_9"/>
<path fill-rule="evenodd" d="M320.8,619.6h.6V598.7h-.6v20.9Z" class="g0_9"/>
<path fill-rule="evenodd" d="M874.5,619.6h.5V598.7h-.5v20.9Z" class="g0_9"/>
<path fill-rule="evenodd" d="M110.1,620.1h.5v-.5h-.5v.5Z" class="g0_9"/>
<path fill-rule="evenodd" d="M110.6,620.1H320.8v-.5H110.6v.5Z" class="g0_9"/>
<path fill-rule="evenodd" d="M320.8,620.1h.6v-.5h-.6v.5Z" class="g0_9"/>
<path fill-rule="evenodd" d="M321.4,620.1H874.5v-.5H321.4v.5Z" class="g0_9"/>
<path fill-rule="evenodd" d="M874.5,620.1h.5v-.5h-.5v.5Z" class="g0_9"/>
<path fill-rule="evenodd" d="M110.1,641h.5V620.1h-.5V641Z" class="g0_9"/>
<path fill-rule="evenodd" d="M320.8,641h.6V620.1h-.6V641Z" class="g0_9"/>
<path fill-rule="evenodd" d="M874.5,641h.5V620.1h-.5V641Z" class="g0_9"/>
<path fill-rule="evenodd" d="M110.1,641.6h.5V641h-.5v.6Z" class="g0_9"/>
<path fill-rule="evenodd" d="M110.6,641.6H320.8V641H110.6v.6Z" class="g0_9"/>
<path fill-rule="evenodd" d="M320.8,641.6h.6V641h-.6v.6Z" class="g0_9"/>
<path fill-rule="evenodd" d="M321.4,641.6H874.5V641H321.4v.6Z" class="g0_9"/>
<path fill-rule="evenodd" d="M874.5,641.6h.5V641h-.5v.6Z" class="g0_9"/>
<path fill-rule="evenodd" d="M110.1,661.9h.5V641.6h-.5v20.3Z" class="g0_9"/>
<path fill-rule="evenodd" d="M320.8,661.9h.6V641.6h-.6v20.3Z" class="g0_9"/>
<path fill-rule="evenodd" d="M874.5,661.9h.5V641.6h-.5v20.3Z" class="g0_9"/>
<path fill-rule="evenodd" d="M110.1,662.5h.5v-.6h-.5v.6Z" class="g0_9"/>
<path fill-rule="evenodd" d="M110.6,662.5H320.8v-.6H110.6v.6Z" class="g0_9"/>
<path fill-rule="evenodd" d="M320.8,662.5h.6v-.6h-.6v.6Z" class="g0_9"/>
<path fill-rule="evenodd" d="M321.4,662.5H874.5v-.6H321.4v.6Z" class="g0_9"/>
<path fill-rule="evenodd" d="M874.5,662.5h.5v-.6h-.5v.6Z" class="g0_9"/>
<path fill-rule="evenodd" d="M110.1,683.4h.5V662.5h-.5v20.9Z" class="g0_9"/>
<path fill-rule="evenodd" d="M320.8,683.4h.6V662.5h-.6v20.9Z" class="g0_9"/>
<path fill-rule="evenodd" d="M874.5,683.4h.5V662.5h-.5v20.9Z" class="g0_9"/>
<path fill-rule="evenodd" d="M110.1,684h.5v-.6h-.5v.6Z" class="g0_9"/>
<path fill-rule="evenodd" d="M110.6,684H320.8v-.6H110.6v.6Z" class="g0_9"/>
<path fill-rule="evenodd" d="M320.8,684h.6v-.6h-.6v.6Z" class="g0_9"/>
<path fill-rule="evenodd" d="M321.4,684H874.5v-.6H321.4v.6Z" class="g0_9"/>
<path fill-rule="evenodd" d="M874.5,684h.5v-.6h-.5v.6Z" class="g0_9"/>
<path fill-rule="evenodd" d="M110.1,704.9h.5V684h-.5v20.9Z" class="g0_9"/>
<path fill-rule="evenodd" d="M320.8,704.9h.6V684h-.6v20.9Z" class="g0_9"/>
<path fill-rule="evenodd" d="M874.5,704.9h.5V684h-.5v20.9Z" class="g0_9"/>
<path fill-rule="evenodd" d="M110.1,705.4h.5v-.5h-.5v.5Z" class="g0_9"/>
<path fill-rule="evenodd" d="M110.6,705.4H320.8v-.5H110.6v.5Z" class="g0_9"/>
<path fill-rule="evenodd" d="M320.8,705.4h.6v-.5h-.6v.5Z" class="g0_9"/>
<path fill-rule="evenodd" d="M321.4,705.4H874.5v-.5H321.4v.5Z" class="g0_9"/>
<path fill-rule="evenodd" d="M874.5,705.4h.5v-.5h-.5v.5Z" class="g0_9"/>
<path fill-rule="evenodd" d="M110.1,725.8h.5V705.4h-.5v20.4Z" class="g0_9"/>
<path fill-rule="evenodd" d="M320.8,725.8h.6V705.4h-.6v20.4Z" class="g0_9"/>
<path fill-rule="evenodd" d="M874.5,725.8h.5V705.4h-.5v20.4Z" class="g0_9"/>
<path fill-rule="evenodd" d="M110.1,726.3h.5v-.5h-.5v.5Z" class="g0_9"/>
<path fill-rule="evenodd" d="M110.6,726.3H320.8v-.5H110.6v.5Z" class="g0_9"/>
<path fill-rule="evenodd" d="M320.8,726.3h.6v-.5h-.6v.5Z" class="g0_9"/>
<path fill-rule="evenodd" d="M321.4,726.3H874.5v-.5H321.4v.5Z" class="g0_9"/>
<path fill-rule="evenodd" d="M874.5,726.3h.5v-.5h-.5v.5Z" class="g0_9"/>
<path fill-rule="evenodd" d="M110.1,747.3h.5v-21h-.5v21Z" class="g0_9"/>
<path fill-rule="evenodd" d="M320.8,747.3h.6v-21h-.6v21Z" class="g0_9"/>
<path fill-rule="evenodd" d="M874.5,747.3h.5v-21h-.5v21Z" class="g0_9"/>
<path fill-rule="evenodd" d="M110.1,747.8h.5v-.5h-.5v.5Z" class="g0_9"/>
<path fill-rule="evenodd" d="M110.6,747.8H320.8v-.5H110.6v.5Z" class="g0_9"/>
<path fill-rule="evenodd" d="M320.8,747.8h.6v-.5h-.6v.5Z" class="g0_9"/>
<path fill-rule="evenodd" d="M321.4,747.8H874.5v-.5H321.4v.5Z" class="g0_9"/>
<path fill-rule="evenodd" d="M874.5,747.8h.5v-.5h-.5v.5Z" class="g0_9"/>
<path fill-rule="evenodd" d="M110.1,768.7h.5V747.8h-.5v20.9Z" class="g0_9"/>
<path fill-rule="evenodd" d="M320.8,768.7h.6V747.8h-.6v20.9Z" class="g0_9"/>
<path fill-rule="evenodd" d="M874.5,768.7h.5V747.8h-.5v20.9Z" class="g0_9"/>
<path fill-rule="evenodd" d="M110.1,769.3h.5v-.6h-.5v.6Z" class="g0_9"/>
<path fill-rule="evenodd" d="M110.6,769.3H320.8v-.6H110.6v.6Z" class="g0_9"/>
<path fill-rule="evenodd" d="M320.8,769.3h.6v-.6h-.6v.6Z" class="g0_9"/>
<path fill-rule="evenodd" d="M321.4,769.3H874.5v-.6H321.4v.6Z" class="g0_9"/>
<path fill-rule="evenodd" d="M874.5,769.3h.5v-.6h-.5v.6Z" class="g0_9"/>
<path fill-rule="evenodd" d="M110.1,790.2h.5V769.3h-.5v20.9Z" class="g0_9"/>
<path fill-rule="evenodd" d="M320.8,790.2h.6V769.3h-.6v20.9Z" class="g0_9"/>
<path fill-rule="evenodd" d="M874.5,790.2h.5V769.3h-.5v20.9Z" class="g0_9"/>
<path fill-rule="evenodd" d="M110.1,790.7h.5v-.5h-.5v.5Z" class="g0_9"/>
<path fill-rule="evenodd" d="M110.6,790.7H320.8v-.5H110.6v.5Z" class="g0_9"/>
<path fill-rule="evenodd" d="M320.8,790.7h.6v-.5h-.6v.5Z" class="g0_9"/>
<path fill-rule="evenodd" d="M321.4,790.7H874.5v-.5H321.4v.5Z" class="g0_9"/>
<path fill-rule="evenodd" d="M874.5,790.7h.5v-.5h-.5v.5Z" class="g0_9"/>
<path fill-rule="evenodd" d="M110.1,811.1h.5V790.7h-.5v20.4Z" class="g0_9"/>
<path fill-rule="evenodd" d="M320.8,811.1h.6V790.7h-.6v20.4Z" class="g0_9"/>
<path fill-rule="evenodd" d="M874.5,811.1h.5V790.7h-.5v20.4Z" class="g0_9"/>
<path fill-rule="evenodd" d="M110.1,811.6h.5v-.5h-.5v.5Z" class="g0_9"/>
<path fill-rule="evenodd" d="M110.6,811.6H320.8v-.5H110.6v.5Z" class="g0_9"/>
<path fill-rule="evenodd" d="M320.8,811.6h.6v-.5h-.6v.5Z" class="g0_9"/>
<path fill-rule="evenodd" d="M321.4,811.6H874.5v-.5H321.4v.5Z" class="g0_9"/>
<path fill-rule="evenodd" d="M874.5,811.6h.5v-.5h-.5v.5Z" class="g0_9"/>
<path fill-rule="evenodd" d="M110.1,832.5h.5V811.6h-.5v20.9Z" class="g0_9"/>
<path fill-rule="evenodd" d="M320.8,832.5h.6V811.6h-.6v20.9Z" class="g0_9"/>
<path fill-rule="evenodd" d="M874.5,832.5h.5V811.6h-.5v20.9Z" class="g0_9"/>
<path fill-rule="evenodd" d="M110.1,833.1h.5v-.6h-.5v.6Z" class="g0_9"/>
<path fill-rule="evenodd" d="M110.6,833.1H320.8v-.6H110.6v.6Z" class="g0_9"/>
<path fill-rule="evenodd" d="M320.8,833.1h.6v-.6h-.6v.6Z" class="g0_9"/>
<path fill-rule="evenodd" d="M321.4,833.1H874.5v-.6H321.4v.6Z" class="g0_9"/>
<path fill-rule="evenodd" d="M874.5,833.1h.5v-.6h-.5v.6Z" class="g0_9"/>
<path fill-rule="evenodd" d="M110.1,854h.5V833.1h-.5V854Z" class="g0_9"/>
<path fill-rule="evenodd" d="M320.8,854h.6V833.1h-.6V854Z" class="g0_9"/>
<path fill-rule="evenodd" d="M874.5,854h.5V833.1h-.5V854Z" class="g0_9"/>
<path fill-rule="evenodd" d="M110.1,854.5h.5V854h-.5v.5Z" class="g0_9"/>
<path fill-rule="evenodd" d="M110.6,854.5H320.8V854H110.6v.5Z" class="g0_9"/>
<path fill-rule="evenodd" d="M320.8,854.5h.6V854h-.6v.5Z" class="g0_9"/>
<path fill-rule="evenodd" d="M321.4,854.5H874.5V854H321.4v.5Z" class="g0_9"/>
<path fill-rule="evenodd" d="M874.5,854.5h.5V854h-.5v.5Z" class="g0_9"/>
<path fill-rule="evenodd" d="M110.1,874.9h.5V854.5h-.5v20.4Z" class="g0_9"/>
<path fill-rule="evenodd" d="M320.8,874.9h.6V854.5h-.6v20.4Z" class="g0_9"/>
<path fill-rule="evenodd" d="M874.5,874.9h.5V854.5h-.5v20.4Z" class="g0_9"/>
<path fill-rule="evenodd" d="M110.1,875.4h.5v-.5h-.5v.5Z" class="g0_9"/>
<path fill-rule="evenodd" d="M110.6,875.4H320.8v-.5H110.6v.5Z" class="g0_9"/>
<path fill-rule="evenodd" d="M320.8,875.4h.6v-.5h-.6v.5Z" class="g0_9"/>
<path fill-rule="evenodd" d="M321.4,875.4H874.5v-.5H321.4v.5Z" class="g0_9"/>
<path fill-rule="evenodd" d="M874.5,875.4h.5v-.5h-.5v.5Z" class="g0_9"/>
<path fill-rule="evenodd" d="M110.1,896.3h.5V875.4h-.5v20.9Z" class="g0_9"/>
<path fill-rule="evenodd" d="M320.8,896.3h.6V875.4h-.6v20.9Z" class="g0_9"/>
<path fill-rule="evenodd" d="M874.5,896.3h.5V875.4h-.5v20.9Z" class="g0_9"/>
<path fill-rule="evenodd" d="M110.1,896.9h.5v-.6h-.5v.6Z" class="g0_9"/>
<path fill-rule="evenodd" d="M110.6,896.9H320.8v-.6H110.6v.6Z" class="g0_9"/>
<path fill-rule="evenodd" d="M320.8,896.9h.6v-.6h-.6v.6Z" class="g0_9"/>
<path fill-rule="evenodd" d="M321.4,896.9H874.5v-.6H321.4v.6Z" class="g0_9"/>
<path fill-rule="evenodd" d="M874.5,896.9h.5v-.6h-.5v.6Z" class="g0_9"/>
<path fill-rule="evenodd" d="M110.1,917.8h.5V896.9h-.5v20.9Z" class="g0_9"/>
<path fill-rule="evenodd" d="M320.8,917.8h.6V896.9h-.6v20.9Z" class="g0_9"/>
<path fill-rule="evenodd" d="M874.5,917.8h.5V896.9h-.5v20.9Z" class="g0_9"/>
<path fill-rule="evenodd" d="M110.1,918.4h.5v-.6h-.5v.6Z" class="g0_9"/>
<path fill-rule="evenodd" d="M110.6,918.4H320.8v-.6H110.6v.6Z" class="g0_9"/>
<path fill-rule="evenodd" d="M320.8,918.4h.6v-.6h-.6v.6Z" class="g0_9"/>
<path fill-rule="evenodd" d="M321.4,918.4H874.5v-.6H321.4v.6Z" class="g0_9"/>
<path fill-rule="evenodd" d="M874.5,918.4h.5v-.6h-.5v.6Z" class="g0_9"/>
<path fill-rule="evenodd" d="M110.1,938.7h.5V918.4h-.5v20.3Z" class="g0_9"/>
<path fill-rule="evenodd" d="M320.8,938.7h.6V918.4h-.6v20.3Z" class="g0_9"/>
<path fill-rule="evenodd" d="M874.5,938.7h.5V918.4h-.5v20.3Z" class="g0_9"/>
<path fill-rule="evenodd" d="M110.1,939.3h.5v-.6h-.5v.6Z" class="g0_9"/>
<path fill-rule="evenodd" d="M110.6,939.3H320.8v-.6H110.6v.6Z" class="g0_9"/>
<path fill-rule="evenodd" d="M320.8,939.3h.6v-.6h-.6v.6Z" class="g0_9"/>
<path fill-rule="evenodd" d="M321.4,939.3H874.5v-.6H321.4v.6Z" class="g0_9"/>
<path fill-rule="evenodd" d="M874.5,939.3h.5v-.6h-.5v.6Z" class="g0_9"/>
<path fill-rule="evenodd" d="M110.1,960.2h.5V939.3h-.5v20.9Z" class="g0_9"/>
<path fill-rule="evenodd" d="M320.8,960.2h.6V939.3h-.6v20.9Z" class="g0_9"/>
<path fill-rule="evenodd" d="M874.5,960.2h.5V939.3h-.5v20.9Z" class="g0_9"/>
<path fill-rule="evenodd" d="M110.1,960.7h.5v-.5h-.5v.5Z" class="g0_9"/>
<path fill-rule="evenodd" d="M110.6,960.7H320.8v-.5H110.6v.5Z" class="g0_9"/>
<path fill-rule="evenodd" d="M320.8,960.7h.6v-.5h-.6v.5Z" class="g0_9"/>
<path fill-rule="evenodd" d="M321.4,960.7H874.5v-.5H321.4v.5Z" class="g0_9"/>
<path fill-rule="evenodd" d="M874.5,960.7h.5v-.5h-.5v.5Z" class="g0_9"/>
<path fill-rule="evenodd" d="M110.1,981.7h.5v-21h-.5v21Z" class="g0_9"/>
<path fill-rule="evenodd" d="M320.8,981.7h.6v-21h-.6v21Z" class="g0_9"/>
<path fill-rule="evenodd" d="M874.5,981.7h.5v-21h-.5v21Z" class="g0_9"/>
<path fill-rule="evenodd" d="M110.1,982.2h.5v-.5h-.5v.5Z" class="g0_9"/>
<path fill-rule="evenodd" d="M110.6,982.2H320.8v-.5H110.6v.5Z" class="g0_9"/>
<path fill-rule="evenodd" d="M320.8,982.2h.6v-.5h-.6v.5Z" class="g0_9"/>
<path fill-rule="evenodd" d="M321.4,982.2H874.5v-.5H321.4v.5Z" class="g0_9"/>
<path fill-rule="evenodd" d="M874.5,982.2h.5v-.5h-.5v.5Z" class="g0_9"/>
<path fill-rule="evenodd" d="M110.1,1002.6h.5V982.2h-.5v20.4Z" class="g0_9"/>
<path fill-rule="evenodd" d="M320.8,1002.6h.6V982.2h-.6v20.4Z" class="g0_9"/>
<path fill-rule="evenodd" d="M874.5,1002.6h.5V982.2h-.5v20.4Z" class="g0_9"/>
<path fill-rule="evenodd" d="M110.1,1003.1h.5v-.5h-.5v.5Z" class="g0_9"/>
<path fill-rule="evenodd" d="M110.6,1003.1H320.8v-.5H110.6v.5Z" class="g0_9"/>
<path fill-rule="evenodd" d="M320.8,1003.1h.6v-.5h-.6v.5Z" class="g0_9"/>
<path fill-rule="evenodd" d="M321.4,1003.1H874.5v-.5H321.4v.5Z" class="g0_9"/>
<path fill-rule="evenodd" d="M874.5,1003.1h.5v-.5h-.5v.5Z" class="g0_9"/>
<path fill-rule="evenodd" d="M110.1,1024h.5v-20.9h-.5V1024Z" class="g0_9"/>
<path fill-rule="evenodd" d="M320.8,1024h.6v-20.9h-.6V1024Z" class="g0_9"/>
<path fill-rule="evenodd" d="M874.5,1024h.5v-20.9h-.5V1024Z" class="g0_9"/>
<path fill-rule="evenodd" d="M110.1,1024.6h.5v-.6h-.5v.6Z" class="g0_9"/>
<path fill-rule="evenodd" d="M110.6,1024.6H320.8v-.6H110.6v.6Z" class="g0_9"/>
<path fill-rule="evenodd" d="M320.8,1024.6h.6v-.6h-.6v.6Z" class="g0_9"/>
<path fill-rule="evenodd" d="M321.4,1024.6H874.5v-.6H321.4v.6Z" class="g0_9"/>
<path fill-rule="evenodd" d="M874.5,1024.6h.5v-.6h-.5v.6Z" class="g0_9"/>
<path fill-rule="evenodd" d="M110.1,1065.9h.5v-41.3h-.5v41.3Z" class="g0_9"/>
<path fill-rule="evenodd" d="M320.8,1065.9h.6v-41.3h-.6v41.3Z" class="g0_9"/>
<path fill-rule="evenodd" d="M874.5,1065.9h.5v-41.3h-.5v41.3Z" class="g0_9"/>
<path fill-rule="evenodd" d="M110.1,1066.4h.5v-.5h-.5v.5Z" class="g0_9"/>
<path fill-rule="evenodd" d="M110.6,1066.4H320.8v-.5H110.6v.5Z" class="g0_9"/>
<path fill-rule="evenodd" d="M320.8,1066.4h.6v-.5h-.6v.5Z" class="g0_9"/>
<path fill-rule="evenodd" d="M321.4,1066.4H874.5v-.5H321.4v.5Z" class="g0_9"/>
<path fill-rule="evenodd" d="M874.5,1066.4h.5v-.5h-.5v.5Z" class="g0_9"/>
<path fill-rule="evenodd" d="M110.1,1087.3h.5v-20.9h-.5v20.9Z" class="g0_9"/>
<path fill-rule="evenodd" d="M110.1,1087.9h.5v-.6h-.5v.6Z" class="g0_9"/>
<path fill-rule="evenodd" d="M110.1,1087.9h.5v-.6h-.5v.6Z" class="g0_9"/>
<path fill-rule="evenodd" d="M110.6,1087.9H320.8v-.6H110.6v.6Z" class="g0_9"/>
<path fill-rule="evenodd" d="M320.8,1087.3h.6v-20.9h-.6v20.9Z" class="g0_9"/>
<path fill-rule="evenodd" d="M320.8,1087.9h.6v-.6h-.6v.6Z" class="g0_9"/>
<path fill-rule="evenodd" d="M321.4,1087.9H874.5v-.6H321.4v.6Z" class="g0_9"/>
<path fill-rule="evenodd" d="M874.5,1087.3h.5v-20.9h-.5v20.9Z" class="g0_9"/>
<path fill-rule="evenodd" d="M874.5,1087.9h.5v-.6h-.5v.6Z" class="g0_9"/>
<path fill-rule="evenodd" d="M874.5,1087.9h.5v-.6h-.5v.6Z" class="g0_9"/>
</svg>