<?xml version="1.0" encoding="UTF-8" standalone="no"?>
<!DOCTYPE svg PUBLIC "-//W3C//DTD SVG 1.1//EN"
"http://www.w3.org/Graphics/SVG/1.1/DTD/svg11.dtd">
<svg viewBox="0 0 935 1210" version="1.1" xmlns="http://www.w3.org/2000/svg" xmlns:xlink="http://www.w3.org/1999/xlink">
<defs>
<clipPath id="c0_14"><path d="M0,992.2v-302H935v302Z"/></clipPath>
<style type="text/css"><![CDATA[
.g0_14{
}
.g1_14{
fill: #FFFFFF;
}
.g2_14{
fill: #2E75B6;
}
.g3_14{
fill: none;
stroke: #D9D9D9;
stroke-width: 1.145;
stroke-linecap: butt;
stroke-linejoin: round;
}
]]></style>
</defs>
<path fill-rule="evenodd" d="M110.1,153h.5v-.6h-.5v.6Z" class="g0_14"/>
<path fill-rule="evenodd" d="M110.1,153h.5v-.6h-.5v.6Z" class="g0_14"/>
<path fill-rule="evenodd" d="M110.6,153H284.5v-.6H110.6v.6Z" class="g0_14"/>
<path fill-rule="evenodd" d="M284.5,153h.6v-.6h-.6v.6Z" class="g0_14"/>
<path fill-rule="evenodd" d="M285.1,153H499.7v-.6H285.1v.6Z" class="g0_14"/>
<path fill-rule="evenodd" d="M499.7,153h.5v-.6h-.5v.6Z" class="g0_14"/>
<path fill-rule="evenodd" d="M500.2,153H608.1v-.6H500.2v.6Z" class="g0_14"/>
<path fill-rule="evenodd" d="M608.1,153h.6v-.6h-.6v.6Z" class="g0_14"/>
<path fill-rule="evenodd" d="M608.7,153H719.8v-.6H608.7v.6Z" class="g0_14"/>
<path fill-rule="evenodd" d="M719.8,153h.6v-.6h-.6v.6Z" class="g0_14"/>
<path fill-rule="evenodd" d="M720.4,153h104v-.6h-104v.6Z" class="g0_14"/>
<path fill-rule="evenodd" d="M824.4,153h.6v-.6h-.6v.6Z" class="g0_14"/>
<path fill-rule="evenodd" d="M824.4,153h.6v-.6h-.6v.6Z" class="g0_14"/>
<path fill-rule="evenodd" d="M110.1,204.2h.5V153h-.5v51.2Z" class="g0_14"/>
<path fill-rule="evenodd" d="M284.5,204.2h.6V153h-.6v51.2Z" class="g0_14"/>
<path fill-rule="evenodd" d="M499.7,204.2h.5V153h-.5v51.2Z" class="g0_14"/>
<path fill-rule="evenodd" d="M608.1,204.2h.6V153h-.6v51.2Z" class="g0_14"/>
<path fill-rule="evenodd" d="M719.8,204.2h.6V153h-.6v51.2Z" class="g0_14"/>
<path fill-rule="evenodd" d="M824.4,204.2h.6V153h-.6v51.2Z" class="g0_14"/>
<path fill-rule="evenodd" d="M110.1,204.7h.5v-.5h-.5v.5Z" class="g0_14"/>
<path fill-rule="evenodd" d="M110.6,204.7H284.5v-.5H110.6v.5Z" class="g0_14"/>
<path fill-rule="evenodd" d="M284.5,204.7h.6v-.5h-.6v.5Z" class="g0_14"/>
<path fill-rule="evenodd" d="M285.1,204.7H499.7v-.5H285.1v.5Z" class="g0_14"/>
<path fill-rule="evenodd" d="M499.7,204.7h.5v-.5h-.5v.5Z" class="g0_14"/>
<path fill-rule="evenodd" d="M500.2,204.7H608.1v-.5H500.2v.5Z" class="g0_14"/>
<path fill-rule="evenodd" d="M608.1,204.7h.6v-.5h-.6v.5Z" class="g0_14"/>
<path fill-rule="evenodd" d="M608.7,204.7H719.8v-.5H608.7v.5Z" class="g0_14"/>
<path fill-rule="evenodd" d="M719.8,204.7h.6v-.5h-.6v.5Z" class="g0_14"/>
<path fill-rule="evenodd" d="M720.4,204.7h104v-.5h-104v.5Z" class="g0_14"/>
<path fill-rule="evenodd" d="M824.4,204.7h.6v-.5h-.6v.5Z" class="g0_14"/>
<path fill-rule="evenodd" d="M110.1,247.1h.5V204.7h-.5v42.4Z" class="g0_14"/>
<path fill-rule="evenodd" d="M284.5,247.1h.6V204.7h-.6v42.4Z" class="g0_14"/>
<path fill-rule="evenodd" d="M499.7,247.1h.5V204.7h-.5v42.4Z" class="g0_14"/>
<path fill-rule="evenodd" d="M608.1,247.1h.6V204.7h-.6v42.4Z" class="g0_14"/>
<path fill-rule="evenodd" d="M719.8,247.1h.6V204.7h-.6v42.4Z" class="g0_14"/>
<path fill-rule="evenodd" d="M824.4,247.1h.6V204.7h-.6v42.4Z" class="g0_14"/>
<path fill-rule="evenodd" d="M110.1,247.6h.5v-.5h-.5v.5Z" class="g0_14"/>
<path fill-rule="evenodd" d="M110.6,247.6H284.5v-.5H110.6v.5Z" class="g0_14"/>
<path fill-rule="evenodd" d="M284.5,247.6h.6v-.5h-.6v.5Z" class="g0_14"/>
<path fill-rule="evenodd" d="M285.1,247.6H499.7v-.5H285.1v.5Z" class="g0_14"/>
<path fill-rule="evenodd" d="M499.7,247.6h.5v-.5h-.5v.5Z" class="g0_14"/>
<path fill-rule="evenodd" d="M500.2,247.6H608.1v-.5H500.2v.5Z" class="g0_14"/>
<path fill-rule="evenodd" d="M608.1,247.6h.6v-.5h-.6v.5Z" class="g0_14"/>
<path fill-rule="evenodd" d="M608.7,247.6H719.8v-.5H608.7v.5Z" class="g0_14"/>
<path fill-rule="evenodd" d="M719.8,247.6h.6v-.5h-.6v.5Z" class="g0_14"/>
<path fill-rule="evenodd" d="M720.4,247.6h104v-.5h-104v.5Z" class="g0_14"/>
<path fill-rule="evenodd" d="M824.4,247.6h.6v-.5h-.6v.5Z" class="g0_14"/>
<path fill-rule="evenodd" d="M110.1,270.7h.5V247.6h-.5v23.1Z" class="g0_14"/>
<path fill-rule="evenodd" d="M284.5,270.7h.6V247.6h-.6v23.1Z" class="g0_14"/>
<path fill-rule="evenodd" d="M499.7,270.7h.5V247.6h-.5v23.1Z" class="g0_14"/>
<path fill-rule="evenodd" d="M608.1,270.7h.6V247.6h-.6v23.1Z" class="g0_14"/>
<path fill-rule="evenodd" d="M719.8,270.7h.6V247.6h-.6v23.1Z" class="g0_14"/>
<path fill-rule="evenodd" d="M824.4,270.7h.6V247.6h-.6v23.1Z" class="g0_14"/>
<path fill-rule="evenodd" d="M110.1,271.3h.5v-.6h-.5v.6Z" class="g0_14"/>
<path fill-rule="evenodd" d="M110.6,271.3H284.5v-.6H110.6v.6Z" class="g0_14"/>
<path fill-rule="evenodd" d="M284.5,271.3h.6v-.6h-.6v.6Z" class="g0_14"/>
<path fill-rule="evenodd" d="M285.1,271.3H499.7v-.6H285.1v.6Z" class="g0_14"/>
<path fill-rule="evenodd" d="M499.7,271.3h.5v-.6h-.5v.6Z" class="g0_14"/>
<path fill-rule="evenodd" d="M500.2,271.3H608.1v-.6H500.2v.6Z" class="g0_14"/>
<path fill-rule="evenodd" d="M608.1,271.3h.6v-.6h-.6v.6Z" class="g0_14"/>
<path fill-rule="evenodd" d="M608.7,271.3H719.8v-.6H608.7v.6Z" class="g0_14"/>
<path fill-rule="evenodd" d="M719.8,271.3h.6v-.6h-.6v.6Z" class="g0_14"/>
<path fill-rule="evenodd" d="M720.4,271.3h104v-.6h-104v.6Z" class="g0_14"/>
<path fill-rule="evenodd" d="M824.4,271.3h.6v-.6h-.6v.6Z" class="g0_14"/>
<path fill-rule="evenodd" d="M110.1,294.4h.5V271.3h-.5v23.1Z" class="g0_14"/>
<path fill-rule="evenodd" d="M284.5,294.4h.6V271.3h-.6v23.1Z" class="g0_14"/>
<path fill-rule="evenodd" d="M499.7,294.4h.5V271.3h-.5v23.1Z" class="g0_14"/>
<path fill-rule="evenodd" d="M608.1,294.4h.6V271.3h-.6v23.1Z" class="g0_14"/>
<path fill-rule="evenodd" d="M719.8,294.4h.6V271.3h-.6v23.1Z" class="g0_14"/>
<path fill-rule="evenodd" d="M824.4,294.4h.6V271.3h-.6v23.1Z" class="g0_14"/>
<path fill-rule="evenodd" d="M110.1,295h.5v-.6h-.5v.6Z" class="g0_14"/>
<path fill-rule="evenodd" d="M110.6,295H284.5v-.6H110.6v.6Z" class="g0_14"/>
<path fill-rule="evenodd" d="M284.5,295h.6v-.6h-.6v.6Z" class="g0_14"/>
<path fill-rule="evenodd" d="M285.1,295H499.7v-.6H285.1v.6Z" class="g0_14"/>
<path fill-rule="evenodd" d="M499.7,295h.5v-.6h-.5v.6Z" class="g0_14"/>
<path fill-rule="evenodd" d="M500.2,295H608.1v-.6H500.2v.6Z" class="g0_14"/>
<path fill-rule="evenodd" d="M608.1,295h.6v-.6h-.6v.6Z" class="g0_14"/>
<path fill-rule="evenodd" d="M608.7,295H719.8v-.6H608.7v.6Z" class="g0_14"/>
<path fill-rule="evenodd" d="M719.8,295h.6v-.6h-.6v.6Z" class="g0_14"/>
<path fill-rule="evenodd" d="M720.4,295h104v-.6h-104v.6Z" class="g0_14"/>
<path fill-rule="evenodd" d="M824.4,295h.6v-.6h-.6v.6Z" class="g0_14"/>
<path fill-rule="evenodd" d="M110.1,358.2h.5V294.9h-.5v63.3Z" class="g0_14"/>
<path fill-rule="evenodd" d="M284.5,358.2h.6V294.9h-.6v63.3Z" class="g0_14"/>
<path fill-rule="evenodd" d="M499.7,358.2h.5V294.9h-.5v63.3Z" class="g0_14"/>
<path fill-rule="evenodd" d="M608.1,358.2h.6V294.9h-.6v63.3Z" class="g0_14"/>
<path fill-rule="evenodd" d="M719.8,358.2h.6V294.9h-.6v63.3Z" class="g0_14"/>
<path fill-rule="evenodd" d="M824.4,358.2h.6V294.9h-.6v63.3Z" class="g0_14"/>
<path fill-rule="evenodd" d="M110.1,358.8h.5v-.6h-.5v.6Z" class="g0_14"/>
<path fill-rule="evenodd" d="M110.6,358.8H284.5v-.6H110.6v.6Z" class="g0_14"/>
<path fill-rule="evenodd" d="M284.5,358.8h.6v-.6h-.6v.6Z" class="g0_14"/>
<path fill-rule="evenodd" d="M285.1,358.8H499.7v-.6H285.1v.6Z" class="g0_14"/>
<path fill-rule="evenodd" d="M499.7,358.8h.5v-.6h-.5v.6Z" class="g0_14"/>
<path fill-rule="evenodd" d="M500.2,358.8H608.1v-.6H500.2v.6Z" class="g0_14"/>
<path fill-rule="evenodd" d="M608.1,358.8h.6v-.6h-.6v.6Z" class="g0_14"/>
<path fill-rule="evenodd" d="M608.7,358.8H719.8v-.6H608.7v.6Z" class="g0_14"/>
<path fill-rule="evenodd" d="M719.8,358.8h.6v-.6h-.6v.6Z" class="g0_14"/>
<path fill-rule="evenodd" d="M720.4,358.8h104v-.6h-104v.6Z" class="g0_14"/>
<path fill-rule="evenodd" d="M824.4,358.8h.6v-.6h-.6v.6Z" class="g0_14"/>
<path fill-rule="evenodd" d="M110.1,422.6h.5V358.8h-.5v63.8Z" class="g0_14"/>
<path fill-rule="evenodd" d="M284.5,422.6h.6V358.8h-.6v63.8Z" class="g0_14"/>
<path fill-rule="evenodd" d="M499.7,422.6h.5V358.8h-.5v63.8Z" class="g0_14"/>
<path fill-rule="evenodd" d="M608.1,422.6h.6V358.8h-.6v63.8Z" class="g0_14"/>
<path fill-rule="evenodd" d="M719.8,422.6h.6V358.8h-.6v63.8Z" class="g0_14"/>
<path fill-rule="evenodd" d="M824.4,422.6h.6V358.8h-.6v63.8Z" class="g0_14"/>
<path fill-rule="evenodd" d="M110.1,423.1h.5v-.5h-.5v.5Z" class="g0_14"/>
<path fill-rule="evenodd" d="M110.6,423.1H284.5v-.5H110.6v.5Z" class="g0_14"/>
<path fill-rule="evenodd" d="M284.5,423.1h.6v-.5h-.6v.5Z" class="g0_14"/>
<path fill-rule="evenodd" d="M285.1,423.1H499.7v-.5H285.1v.5Z" class="g0_14"/>
<path fill-rule="evenodd" d="M499.7,423.1h.5v-.5h-.5v.5Z" class="g0_14"/>
<path fill-rule="evenodd" d="M500.2,423.1H608.1v-.5H500.2v.5Z" class="g0_14"/>
<path fill-rule="evenodd" d="M608.1,423.1h.6v-.5h-.6v.5Z" class="g0_14"/>
<path fill-rule="evenodd" d="M608.7,423.1H719.8v-.5H608.7v.5Z" class="g0_14"/>
<path fill-rule="evenodd" d="M719.8,423.1h.6v-.5h-.6v.5Z" class="g0_14"/>
<path fill-rule="evenodd" d="M720.4,423.1h104v-.5h-104v.5Z" class="g0_14"/>
<path fill-rule="evenodd" d="M824.4,423.1h.6v-.5h-.6v.5Z" class="g0_14"/>
<path fill-rule="evenodd" d="M110.1,487h.5V423.1h-.5V487Z" class="g0_14"/>
<path fill-rule="evenodd" d="M110.1,487.5h.5V487h-.5v.5Z" class="g0_14"/>
<path fill-rule="evenodd" d="M110.1,487.5h.5V487h-.5v.5Z" class="g0_14"/>
<path fill-rule="evenodd" d="M110.6,487.5H284.5V487H110.6v.5Z" class="g0_14"/>
<path fill-rule="evenodd" d="M284.5,487h.6V423.1h-.6V487Z" class="g0_14"/>
<path fill-rule="evenodd" d="M284.5,487.5h.6V487h-.6v.5Z" class="g0_14"/>
<path fill-rule="evenodd" d="M285.1,487.5H499.7V487H285.1v.5Z" class="g0_14"/>
<path fill-rule="evenodd" d="M499.7,487h.5V423.1h-.5V487Z" class="g0_14"/>
<path fill-rule="evenodd" d="M499.7,487.5h.5V487h-.5v.5Z" class="g0_14"/>
<path fill-rule="evenodd" d="M500.2,487.5H608.1V487H500.2v.5Z" class="g0_14"/>
<path fill-rule="evenodd" d="M608.1,487h.6V423.1h-.6V487Z" class="g0_14"/>
<path fill-rule="evenodd" d="M608.1,487.5h.6V487h-.6v.5Z" class="g0_14"/>
<path fill-rule="evenodd" d="M608.7,487.5H719.8V487H608.7v.5Z" class="g0_14"/>
<path fill-rule="evenodd" d="M719.8,487h.6V423.1h-.6V487Z" class="g0_14"/>
<path fill-rule="evenodd" d="M719.8,487.5h.6V487h-.6v.5Z" class="g0_14"/>
<path fill-rule="evenodd" d="M720.4,487.5h104V487h-104v.5Z" class="g0_14"/>
<path fill-rule="evenodd" d="M824.4,487h.6V423.1h-.6V487Z" class="g0_14"/>
<path fill-rule="evenodd" d="M824.4,487.5h.6V487h-.6v.5Z" class="g0_14"/>
<path fill-rule="evenodd" d="M824.4,487.5h.6V487h-.6v.5Z" class="g0_14"/>
<path clip-path="url(#c0_14)" fill-rule="evenodd" d="M229.2,971.9H705.1V690.1H229.2V971.9Z" class="g1_14"/>
<path d="M660.5,894.9H377.9V874.5H660.5ZM608.8,836.6H377.9V815.7H608.8Zm12.7,-58.4H377.9V757.4H621.5Z" class="g2_14"/>
<path d="M377.9,914V738.5" class="g3_14"/>
<path clip-path="url(#c0_14)" d="M229.2,971.9H705.1V690.1H229.2V971.9Z" class="g3_14"/>
</svg>