<?xml version="1.0" encoding="UTF-8" standalone="no"?>
<!DOCTYPE svg PUBLIC "-//W3C//DTD SVG 1.1//EN"
"http://www.w3.org/Graphics/SVG/1.1/DTD/svg11.dtd">
<svg viewBox="0 0 935 1210" version="1.1" xmlns="http://www.w3.org/2000/svg" xmlns:xlink="http://www.w3.org/1999/xlink">
<defs>
<style type="text/css"><![CDATA[
.g0_10{
}
]]></style>
</defs>
<path fill-rule="evenodd" d="M110.1,130.4h.5V110h-.5v20.4Z" class="g0_10"/>
<path fill-rule="evenodd" d="M320.8,130.4h.6V110h-.6v20.4Z" class="g0_10"/>
<path fill-rule="evenodd" d="M874.5,130.4h.5V110h-.5v20.4Z" class="g0_10"/>
<path fill-rule="evenodd" d="M110.1,131h.5v-.6h-.5v.6Z" class="g0_10"/>
<path fill-rule="evenodd" d="M110.6,131H320.8v-.6H110.6v.6Z" class="g0_10"/>
<path fill-rule="evenodd" d="M320.8,131h.6v-.6h-.6v.6Z" class="g0_10"/>
<path fill-rule="evenodd" d="M321.4,131H874.5v-.6H321.4v.6Z" class="g0_10"/>
<path fill-rule="evenodd" d="M874.5,131h.5v-.6h-.5v.6Z" class="g0_10"/>
<path fill-rule="evenodd" d="M110.1,151.9h.5V131h-.5v20.9Z" class="g0_10"/>
<path fill-rule="evenodd" d="M320.8,151.9h.6V131h-.6v20.9Z" class="g0_10"/>
<path fill-rule="evenodd" d="M874.5,151.9h.5V131h-.5v20.9Z" class="g0_10"/>
<path fill-rule="evenodd" d="M110.1,152.4h.5v-.5h-.5v.5Z" class="g0_10"/>
<path fill-rule="evenodd" d="M110.6,152.4H320.8v-.5H110.6v.5Z" class="g0_10"/>
<path fill-rule="evenodd" d="M320.8,152.4h.6v-.5h-.6v.5Z" class="g0_10"/>
<path fill-rule="evenodd" d="M321.4,152.4H874.5v-.5H321.4v.5Z" class="g0_10"/>
<path fill-rule="evenodd" d="M874.5,152.4h.5v-.5h-.5v.5Z" class="g0_10"/>
<path fill-rule="evenodd" d="M110.1,173.3h.5V152.4h-.5v20.9Z" class="g0_10"/>
<path fill-rule="evenodd" d="M320.8,173.3h.6V152.4h-.6v20.9Z" class="g0_10"/>
<path fill-rule="evenodd" d="M874.5,173.3h.5V152.4h-.5v20.9Z" class="g0_10"/>
<path fill-rule="evenodd" d="M110.1,173.9h.5v-.6h-.5v.6Z" class="g0_10"/>
<path fill-rule="evenodd" d="M110.6,173.9H320.8v-.6H110.6v.6Z" class="g0_10"/>
<path fill-rule="evenodd" d="M320.8,173.9h.6v-.6h-.6v.6Z" class="g0_10"/>
<path fill-rule="evenodd" d="M321.4,173.9H874.5v-.6H321.4v.6Z" class="g0_10"/>
<path fill-rule="evenodd" d="M874.5,173.9h.5v-.6h-.5v.6Z" class="g0_10"/>
<path fill-rule="evenodd" d="M110.1,192h.5V173.9h-.5V192Z" class="g0_10"/>
<path fill-rule="evenodd" d="M320.8,192h.6V173.9h-.6V192Z" class="g0_10"/>
<path fill-rule="evenodd" d="M874.5,192h.5V173.9h-.5V192Z" class="g0_10"/>
<path fill-rule="evenodd" d="M110.1,192.6h.5V192h-.5v.6Z" class="g0_10"/>
<path fill-rule="evenodd" d="M110.6,192.6H320.8V192H110.6v.6Z" class="g0_10"/>
<path fill-rule="evenodd" d="M320.8,192.6h.6V192h-.6v.6Z" class="g0_10"/>
<path fill-rule="evenodd" d="M321.4,192.6H874.5V192H321.4v.6Z" class="g0_10"/>
<path fill-rule="evenodd" d="M874.5,192.6h.5V192h-.5v.6Z" class="g0_10"/>
<path fill-rule="evenodd" d="M110.1,210.8h.5V192.6h-.5v18.2Z" class="g0_10"/>
<path fill-rule="evenodd" d="M320.8,210.8h.6V192.6h-.6v18.2Z" class="g0_10"/>
<path fill-rule="evenodd" d="M874.5,210.8h.5V192.6h-.5v18.2Z" class="g0_10"/>
<path fill-rule="evenodd" d="M110.1,211.3h.5v-.5h-.5v.5Z" class="g0_10"/>
<path fill-rule="evenodd" d="M110.6,211.3H320.8v-.5H110.6v.5Z" class="g0_10"/>
<path fill-rule="evenodd" d="M320.8,211.3h.6v-.5h-.6v.5Z" class="g0_10"/>
<path fill-rule="evenodd" d="M321.4,211.3H874.5v-.5H321.4v.5Z" class="g0_10"/>
<path fill-rule="evenodd" d="M874.5,211.3h.5v-.5h-.5v.5Z" class="g0_10"/>
<path fill-rule="evenodd" d="M110.1,229.5h.5V211.3h-.5v18.2Z" class="g0_10"/>
<path fill-rule="evenodd" d="M320.8,229.5h.6V211.3h-.6v18.2Z" class="g0_10"/>
<path fill-rule="evenodd" d="M874.5,229.5h.5V211.3h-.5v18.2Z" class="g0_10"/>
<path fill-rule="evenodd" d="M110.1,230h.5v-.5h-.5v.5Z" class="g0_10"/>
<path fill-rule="evenodd" d="M110.6,230H320.8v-.5H110.6v.5Z" class="g0_10"/>
<path fill-rule="evenodd" d="M320.8,230h.6v-.5h-.6v.5Z" class="g0_10"/>
<path fill-rule="evenodd" d="M321.4,230H874.5v-.5H321.4v.5Z" class="g0_10"/>
<path fill-rule="evenodd" d="M874.5,230h.5v-.5h-.5v.5Z" class="g0_10"/>
<path fill-rule="evenodd" d="M110.1,247.6h.5V230h-.5v17.6Z" class="g0_10"/>
<path fill-rule="evenodd" d="M320.8,247.6h.6V230h-.6v17.6Z" class="g0_10"/>
<path fill-rule="evenodd" d="M874.5,247.6h.5V230h-.5v17.6Z" class="g0_10"/>
<path fill-rule="evenodd" d="M110.1,248.2h.5v-.6h-.5v.6Z" class="g0_10"/>
<path fill-rule="evenodd" d="M110.6,248.2H320.8v-.6H110.6v.6Z" class="g0_10"/>
<path fill-rule="evenodd" d="M320.8,248.2h.6v-.6h-.6v.6Z" class="g0_10"/>
<path fill-rule="evenodd" d="M321.4,248.2H874.5v-.6H321.4v.6Z" class="g0_10"/>
<path fill-rule="evenodd" d="M874.5,248.2h.5v-.6h-.5v.6Z" class="g0_10"/>
<path fill-rule="evenodd" d="M110.1,266.3h.5V248.2h-.5v18.1Z" class="g0_10"/>
<path fill-rule="evenodd" d="M320.8,266.3h.6V248.2h-.6v18.1Z" class="g0_10"/>
<path fill-rule="evenodd" d="M874.5,266.3h.5V248.2h-.5v18.1Z" class="g0_10"/>
<path fill-rule="evenodd" d="M110.1,266.9h.5v-.6h-.5v.6Z" class="g0_10"/>
<path fill-rule="evenodd" d="M110.6,266.9H320.8v-.6H110.6v.6Z" class="g0_10"/>
<path fill-rule="evenodd" d="M320.8,266.9h.6v-.6h-.6v.6Z" class="g0_10"/>
<path fill-rule="evenodd" d="M321.4,266.9H874.5v-.6H321.4v.6Z" class="g0_10"/>
<path fill-rule="evenodd" d="M874.5,266.9h.5v-.6h-.5v.6Z" class="g0_10"/>
<path fill-rule="evenodd" d="M110.1,285.1h.5V266.9h-.5v18.2Z" class="g0_10"/>
<path fill-rule="evenodd" d="M320.8,285.1h.6V266.9h-.6v18.2Z" class="g0_10"/>
<path fill-rule="evenodd" d="M874.5,285.1h.5V266.9h-.5v18.2Z" class="g0_10"/>
<path fill-rule="evenodd" d="M110.1,285.6h.5v-.5h-.5v.5Z" class="g0_10"/>
<path fill-rule="evenodd" d="M110.6,285.6H320.8v-.5H110.6v.5Z" class="g0_10"/>
<path fill-rule="evenodd" d="M320.8,285.6h.6v-.5h-.6v.5Z" class="g0_10"/>
<path fill-rule="evenodd" d="M321.4,285.6H874.5v-.5H321.4v.5Z" class="g0_10"/>
<path fill-rule="evenodd" d="M874.5,285.6h.5v-.5h-.5v.5Z" class="g0_10"/>
<path fill-rule="evenodd" d="M110.1,303.8h.5V285.6h-.5v18.2Z" class="g0_10"/>
<path fill-rule="evenodd" d="M320.8,303.8h.6V285.6h-.6v18.2Z" class="g0_10"/>
<path fill-rule="evenodd" d="M874.5,303.8h.5V285.6h-.5v18.2Z" class="g0_10"/>
<path fill-rule="evenodd" d="M110.1,304.3h.5v-.5h-.5v.5Z" class="g0_10"/>
<path fill-rule="evenodd" d="M110.6,304.3H320.8v-.5H110.6v.5Z" class="g0_10"/>
<path fill-rule="evenodd" d="M320.8,304.3h.6v-.5h-.6v.5Z" class="g0_10"/>
<path fill-rule="evenodd" d="M321.4,304.3H874.5v-.5H321.4v.5Z" class="g0_10"/>
<path fill-rule="evenodd" d="M874.5,304.3h.5v-.5h-.5v.5Z" class="g0_10"/>
<path fill-rule="evenodd" d="M110.1,322.5h.5V304.3h-.5v18.2Z" class="g0_10"/>
<path fill-rule="evenodd" d="M320.8,322.5h.6V304.3h-.6v18.2Z" class="g0_10"/>
<path fill-rule="evenodd" d="M874.5,322.5h.5V304.3h-.5v18.2Z" class="g0_10"/>
<path fill-rule="evenodd" d="M110.1,323h.5v-.5h-.5v.5Z" class="g0_10"/>
<path fill-rule="evenodd" d="M110.6,323H320.8v-.5H110.6v.5Z" class="g0_10"/>
<path fill-rule="evenodd" d="M320.8,323h.6v-.5h-.6v.5Z" class="g0_10"/>
<path fill-rule="evenodd" d="M321.4,323H874.5v-.5H321.4v.5Z" class="g0_10"/>
<path fill-rule="evenodd" d="M874.5,323h.5v-.5h-.5v.5Z" class="g0_10"/>
<path fill-rule="evenodd" d="M110.1,341.7h.5V323h-.5v18.7Z" class="g0_10"/>
<path fill-rule="evenodd" d="M110.1,342.3h.5v-.6h-.5v.6Z" class="g0_10"/>
<path fill-rule="evenodd" d="M110.1,342.3h.5v-.6h-.5v.6Z" class="g0_10"/>
<path fill-rule="evenodd" d="M110.6,342.3H320.8v-.6H110.6v.6Z" class="g0_10"/>
<path fill-rule="evenodd" d="M320.8,341.7h.6V323h-.6v18.7Z" class="g0_10"/>
<path fill-rule="evenodd" d="M320.8,342.3h.6v-.6h-.6v.6Z" class="g0_10"/>
<path fill-rule="evenodd" d="M321.4,342.3H874.5v-.6H321.4v.6Z" class="g0_10"/>
<path fill-rule="evenodd" d="M874.5,341.7h.5V323h-.5v18.7Z" class="g0_10"/>
<path fill-rule="evenodd" d="M874.5,342.3h.5v-.6h-.5v.6Z" class="g0_10"/>
<path fill-rule="evenodd" d="M874.5,342.3h.5v-.6h-.5v.6Z" class="g0_10"/>
<path fill-rule="evenodd" d="M110.1,406.1h.5v-.6h-.5v.6Z" class="g0_10"/>
<path fill-rule="evenodd" d="M110.1,406.1h.5v-.6h-.5v.6Z" class="g0_10"/>
<path fill-rule="evenodd" d="M110.6,406.1H301v-.6H110.6v.6Z" class="g0_10"/>
<path fill-rule="evenodd" d="M301,406.1h.6v-.6H301v.6Z" class="g0_10"/>
<path fill-rule="evenodd" d="M301.6,406.1H877.2v-.6H301.6v.6Z" class="g0_10"/>
<path fill-rule="evenodd" d="M877.2,406.1h.6v-.6h-.6v.6Z" class="g0_10"/>
<path fill-rule="evenodd" d="M877.2,406.1h.6v-.6h-.6v.6Z" class="g0_10"/>
<path fill-rule="evenodd" d="M110.1,426.4h.5V406.1h-.5v20.3Z" class="g0_10"/>
<path fill-rule="evenodd" d="M301,426.4h.6V406.1H301v20.3Z" class="g0_10"/>
<path fill-rule="evenodd" d="M877.2,426.4h.6V406.1h-.6v20.3Z" class="g0_10"/>
<path fill-rule="evenodd" d="M110.1,427h.5v-.6h-.5v.6Z" class="g0_10"/>
<path fill-rule="evenodd" d="M110.6,427H301v-.6H110.6v.6Z" class="g0_10"/>
<path fill-rule="evenodd" d="M301,427h.6v-.6H301v.6Z" class="g0_10"/>
<path fill-rule="evenodd" d="M301.6,427H877.2v-.6H301.6v.6Z" class="g0_10"/>
<path fill-rule="evenodd" d="M877.2,427h.6v-.6h-.6v.6Z" class="g0_10"/>
<path fill-rule="evenodd" d="M110.1,447.9h.5V427h-.5v20.9Z" class="g0_10"/>
<path fill-rule="evenodd" d="M301,447.9h.6V427H301v20.9Z" class="g0_10"/>
<path fill-rule="evenodd" d="M877.2,447.9h.6V427h-.6v20.9Z" class="g0_10"/>
<path fill-rule="evenodd" d="M110.1,448.5h.5v-.6h-.5v.6Z" class="g0_10"/>
<path fill-rule="evenodd" d="M110.6,448.5H301v-.6H110.6v.6Z" class="g0_10"/>
<path fill-rule="evenodd" d="M301,448.5h.6v-.6H301v.6Z" class="g0_10"/>
<path fill-rule="evenodd" d="M301.6,448.5H877.2v-.6H301.6v.6Z" class="g0_10"/>
<path fill-rule="evenodd" d="M877.2,448.5h.6v-.6h-.6v.6Z" class="g0_10"/>
<path fill-rule="evenodd" d="M110.1,469.4h.5V448.5h-.5v20.9Z" class="g0_10"/>
<path fill-rule="evenodd" d="M110.1,469.9h.5v-.5h-.5v.5Z" class="g0_10"/>
<path fill-rule="evenodd" d="M110.1,469.9h.5v-.5h-.5v.5Z" class="g0_10"/>
<path fill-rule="evenodd" d="M110.6,469.9H301v-.5H110.6v.5Z" class="g0_10"/>
<path fill-rule="evenodd" d="M301,469.4h.6V448.5H301v20.9Z" class="g0_10"/>
<path fill-rule="evenodd" d="M301,469.9h.6v-.5H301v.5Z" class="g0_10"/>
<path fill-rule="evenodd" d="M301.6,469.9H877.2v-.5H301.6v.5Z" class="g0_10"/>
<path fill-rule="evenodd" d="M877.2,469.4h.6V448.5h-.6v20.9Z" class="g0_10"/>
<path fill-rule="evenodd" d="M877.2,469.9h.6v-.5h-.6v.5Z" class="g0_10"/>
<path fill-rule="evenodd" d="M877.2,469.9h.6v-.5h-.6v.5Z" class="g0_10"/>
</svg>